<svg width="26" height="25" viewBox="0 0 26 25" fill="none" xmlns="http://www.w3.org/2000/svg">
<g id="Downarrow">
<path id="Vector" d="M13.0756 17.1222C12.3264 17.1222 11.5772 16.8565 11.01 16.3348L4.03183 9.91763C3.88255 9.77872 3.79883 9.59129 3.79883 9.39599C3.79883 9.20069 3.88255 9.01326 4.03183 8.87435C4.34221 8.58892 4.85594 8.58892 5.16631 8.87435L12.1445 15.2915C12.6582 15.764 13.493 15.764 14.0067 15.2915L20.9849 8.87435C21.2953 8.58892 21.809 8.58892 22.1194 8.87435C22.4298 9.15978 22.4298 9.6322 22.1194 9.91763L15.1412 16.3348C14.574 16.8565 13.8248 17.1222 13.0756 17.1222Z" fill="black"/>
</g>
</svg>
