<svg width="13" height="13" viewBox="0 0 13 13" fill="none" xmlns="http://www.w3.org/2000/svg">
<path d="M6.84375 0.299805C3.58693 0.299805 0.9375 2.94929 0.9375 6.20595C0.9375 9.46271 3.58693 12.1123 6.84375 12.1123C10.1004 12.1123 12.75 9.46271 12.75 6.20595C12.75 2.94929 10.1004 0.299805 6.84375 0.299805ZM8.51302 4.02824C8.51302 4.0562 8.50191 4.08302 8.48214 4.1028C8.46236 4.12258 8.43554 4.13368 8.40757 4.13368L7.73617 4.13411C7.29318 4.13411 7.21219 4.30662 7.21219 4.64637V5.35119H8.36371C8.39397 5.35119 8.42286 5.36426 8.44279 5.38704C8.46272 5.40982 8.472 5.44008 8.46831 5.47013L8.30434 6.73899C8.30106 6.76441 8.28863 6.78777 8.26937 6.80469C8.25012 6.82161 8.22536 6.83095 8.19973 6.83094H7.21219V9.98162C7.21219 10.0096 7.20108 10.0364 7.18131 10.0562C7.16153 10.076 7.13471 10.0871 7.10674 10.0871H5.79663C5.76867 10.0871 5.74184 10.076 5.72207 10.0562C5.70229 10.0364 5.69118 10.0096 5.69118 9.98162V6.83094H4.70048C4.67251 6.83094 4.64569 6.81983 4.62592 6.80006C4.60614 6.78028 4.59503 6.75346 4.59503 6.72549V5.45664C4.59503 5.42867 4.60614 5.40185 4.62592 5.38207C4.64569 5.3623 4.67251 5.35119 4.70048 5.35119H5.69118V4.52078C5.69118 3.42096 6.35678 2.73787 7.42847 2.73787C7.88918 2.73787 8.29632 2.77214 8.42139 2.78869C8.44673 2.79204 8.47 2.80449 8.48686 2.82371C8.50371 2.84293 8.51301 2.86763 8.51302 2.89319V4.02824Z" fill="white"/>
</svg>
