<svg width="13" height="13" viewBox="0 0 13 13" fill="none" xmlns="http://www.w3.org/2000/svg">
<path d="M9.56019 2.34337C9.42001 2.34337 9.28298 2.38493 9.16643 2.46281C9.04987 2.54069 8.95903 2.65138 8.90539 2.78089C8.85174 2.9104 8.83771 3.0529 8.86506 3.19039C8.8924 3.32787 8.95991 3.45416 9.05903 3.55328C9.15815 3.6524 9.28443 3.7199 9.42192 3.74725C9.5594 3.7746 9.70191 3.76056 9.83142 3.70692C9.96092 3.65327 10.0716 3.56243 10.1495 3.44588C10.2274 3.32932 10.2689 3.19229 10.2689 3.05212C10.2689 2.86414 10.1943 2.68387 10.0613 2.55096C9.92843 2.41804 9.74816 2.34337 9.56019 2.34337ZM12.2771 3.77268C12.2656 3.28264 12.1738 2.7978 12.0054 2.33746C11.8552 1.94359 11.6215 1.58694 11.3202 1.29205C11.0278 0.989316 10.6703 0.757053 10.2748 0.612836C9.81572 0.439287 9.33035 0.345407 8.83963 0.335242C8.21356 0.299805 8.01275 0.299805 6.40625 0.299805C4.79975 0.299805 4.59894 0.299805 3.97287 0.335242C3.48216 0.345407 2.99677 0.439287 2.53766 0.612836C2.14293 0.758513 1.78575 0.990576 1.49225 1.29205C1.18951 1.58452 0.957248 1.942 0.813031 2.33746C0.639482 2.79658 0.545602 3.28196 0.535437 3.77268C0.5 4.39874 0.5 4.59955 0.5 6.20605C0.5 7.81255 0.5 8.01337 0.535437 8.63943C0.545602 9.13015 0.639482 9.61553 0.813031 10.0746C0.957248 10.4701 1.18951 10.8276 1.49225 11.1201C1.78575 11.4215 2.14293 11.6536 2.53766 11.7993C2.99677 11.9728 3.48216 12.0667 3.97287 12.0769C4.59894 12.1123 4.79975 12.1123 6.40625 12.1123C8.01275 12.1123 8.21356 12.1123 8.83963 12.0769C9.33035 12.0667 9.81572 11.9728 10.2748 11.7993C10.6703 11.6551 11.0278 11.4228 11.3202 11.1201C11.6228 10.8263 11.8567 10.4693 12.0054 10.0746C12.1738 9.61431 12.2656 9.12947 12.2771 8.63943C12.2771 8.01337 12.3125 7.81255 12.3125 6.20605C12.3125 4.59955 12.3125 4.39874 12.2771 3.77268ZM11.2139 8.56855C11.2096 8.94347 11.1417 9.31493 11.0131 9.66712C10.9188 9.92415 10.7674 10.1564 10.5702 10.3463C10.3786 10.5415 10.1468 10.6927 9.89094 10.7893C9.53875 10.9179 9.16729 10.9858 8.79238 10.9901C8.20175 11.0196 7.98322 11.0256 6.42987 11.0256C4.87653 11.0256 4.658 11.0256 4.06737 10.9901C3.67809 10.9974 3.29046 10.9375 2.92156 10.8129C2.67691 10.7114 2.45577 10.5606 2.27187 10.37C2.07584 10.1802 1.92627 9.94778 1.83481 9.69074C1.69062 9.3335 1.61064 8.95361 1.59856 8.56855C1.59856 7.97793 1.56312 7.7594 1.56312 6.20605C1.56312 4.65271 1.56312 4.43418 1.59856 3.84355C1.60121 3.46027 1.67118 3.08043 1.80528 2.72137C1.90926 2.47207 2.06886 2.24985 2.27187 2.07168C2.45131 1.8686 2.67308 1.70732 2.92156 1.59918C3.28158 1.46927 3.66102 1.40137 4.04375 1.39837C4.63438 1.39837 4.85291 1.36293 6.40625 1.36293C7.95959 1.36293 8.17812 1.36293 8.76875 1.39837C9.14366 1.40267 9.51512 1.47057 9.86731 1.59918C10.1357 1.69879 10.3766 1.86074 10.5702 2.07168C10.7637 2.25311 10.9149 2.47492 11.0131 2.72137C11.1444 3.08102 11.2123 3.4607 11.2139 3.84355C11.2435 4.43418 11.2494 4.65271 11.2494 6.20605C11.2494 7.7594 11.2435 7.97793 11.2139 8.56855ZM6.40625 3.17615C5.80724 3.17732 5.22202 3.35601 4.72454 3.68965C4.22705 4.02329 3.83962 4.4969 3.6112 5.05065C3.38278 5.60439 3.32362 6.21342 3.44119 6.80077C3.55877 7.38813 3.8478 7.92745 4.27178 8.3506C4.69575 8.77375 5.23564 9.06174 5.82322 9.17817C6.4108 9.2946 7.01971 9.23425 7.57301 9.00475C8.12631 8.77525 8.59917 8.3869 8.93184 7.88876C9.26451 7.39063 9.44206 6.80506 9.44206 6.20605C9.44284 5.80744 9.36481 5.41261 9.21245 5.04427C9.06009 4.67593 8.83641 4.34134 8.55428 4.05975C8.27214 3.77817 7.93712 3.55514 7.56848 3.4035C7.19984 3.25185 6.80486 3.17459 6.40625 3.17615ZM6.40625 8.17284C6.01726 8.17284 5.637 8.05749 5.31356 7.84137C4.99013 7.62526 4.73804 7.31809 4.58918 6.95871C4.44032 6.59933 4.40137 6.20387 4.47726 5.82235C4.55315 5.44084 4.74047 5.09039 5.01553 4.81533C5.29058 4.54027 5.64103 4.35295 6.02255 4.27706C6.40407 4.20118 6.79952 4.24012 7.1589 4.38899C7.51829 4.53785 7.82546 4.78993 8.04157 5.11337C8.25768 5.4368 8.37303 5.81706 8.37303 6.20605C8.37303 6.46434 8.32216 6.72009 8.22332 6.95871C8.12448 7.19733 7.97961 7.41415 7.79697 7.59678C7.61434 7.77941 7.39753 7.92428 7.1589 8.02312C6.92028 8.12196 6.66453 8.17284 6.40625 8.17284Z" fill="white"/>
</svg>
