<svg width="16" height="13" viewBox="0 0 16 13" fill="none" xmlns="http://www.w3.org/2000/svg">
<path d="M15.7767 1.72446C15.218 1.96262 14.6272 2.12007 14.0227 2.19189C14.6605 1.81745 15.1384 1.22838 15.3679 0.53396C14.7685 0.884582 14.1125 1.13162 13.4281 1.26433C12.9707 0.776859 12.3616 0.452376 11.6963 0.341765C11.031 0.231155 10.3472 0.340675 9.7521 0.653148C9.15698 0.965621 8.68422 1.46337 8.40798 2.06834C8.13174 2.6733 8.06763 3.35126 8.22572 3.99589C7.01387 3.93566 5.82847 3.62556 4.74653 3.08576C3.66458 2.54595 2.71029 1.7885 1.94565 0.862625C1.67746 1.32288 1.53653 1.84411 1.53689 2.37448C1.53594 2.86703 1.65893 3.35216 1.89493 3.78669C2.13093 4.22122 2.47259 4.59166 2.88952 4.86503C2.40493 4.85207 1.9307 4.72429 1.50716 4.49254V4.52906C1.51079 5.21918 1.75687 5.88688 2.20378 6.41922C2.65068 6.95157 3.27097 7.31587 3.95973 7.45052C3.6946 7.52982 3.41933 7.57162 3.14221 7.57469C2.95038 7.57248 2.75903 7.55539 2.56994 7.52356C2.76608 8.11721 3.14564 8.63601 3.65582 9.00778C4.16599 9.37955 4.7814 9.58578 5.41641 9.5978C4.34412 10.427 3.02023 10.8795 1.6558 10.8832C1.40737 10.884 1.15914 10.8694 0.912598 10.8394C2.30568 11.7233 3.92912 12.1926 5.58734 12.1906C6.73165 12.2023 7.86685 11.9898 8.92664 11.5655C9.98643 11.1412 10.9496 10.5136 11.7598 9.7194C12.57 8.92521 13.2111 7.98032 13.6456 6.93993C14.08 5.89953 14.2992 4.78449 14.2903 3.65992C14.2903 3.53576 14.2903 3.4043 14.2903 3.27283C14.8734 2.84543 15.3764 2.32148 15.7767 1.72446Z" fill="white"/>
</svg>
